<svg version="1.2" xmlns="http://www.w3.org/2000/svg" viewBox="0 0 1396 1070" width="1396" height="1070">
	<title>Discord_logo-svg</title>
	<defs>
		<clipPath clipPathUnits="userSpaceOnUse" id="cp1">
			<path d="m0 0h5586.5v1069.8h-5586.5z"/>
		</clipPath>
		<clipPath clipPathUnits="userSpaceOnUse" id="cp2">
			<path d="m0 0h5586.5v1069.8h-5586.5z"/>
		</clipPath>
	</defs>
	<style>
		.s0 { fill: #5865f2 } 
	</style>
	<g id="layer1">
		<g id="g866">
			<g id="Clip-Path: g835" clip-path="url(#cp1)">
				<g id="g835">
					<g id="Clip-Path: g833" clip-path="url(#cp2)">
						<g id="g833">
							<path id="path815" fill-rule="evenodd" class="s0" d="m1389.7 890.5c-120.8 89.5-238.1 143.8-353.3 179.3-28.6-38.7-53.8-80-75.7-123.3 41.6-15.7 81.6-35 119.4-57.6-9.9-7.3-19.7-14.9-29.2-22.8-226.9 106.3-476.5 106.3-706.1 0-9.4 7.9-19.2 15.5-29.2 22.8 37.7 22.5 77.5 41.8 119.1 57.4-21.8 43.5-47.2 84.6-75.6 123.4-115.2-35.5-232.3-89.8-353.2-179.2-24.7-262.1 24.7-528 207-800.7 90.3-41.9 187-72.5 288.1-89.8 12.5 22.2 27.3 52.1 37.3 75.8q158.1-24 319.1 0c10-23.7 24.5-53.6 36.9-75.8 101 17.3 197.6 47.7 288 89.6 157.9 233.6 236.4 497 207.4 800.9zm-798.2-302.6c0-78.2-56.1-141.4-125.5-141.4-69.4 0-125.5 63.2-125.5 141.4 0 78.2 56.1 141.4 125.5 141.4 69.4 0 125.5-63.2 125.5-141.4zm463.7 0c0-78.2-56.1-141.4-125.5-141.4-69.4 0-125.5 63.2-125.5 141.4 0 78.2 56.1 141.4 125.5 141.4 69.4 0 125.5-63.2 125.5-141.4z"/>
						</g>
					</g>
				</g>
			</g>
		</g>
	</g>
</svg>