<?xml version="1.0" encoding="UTF-8" standalone="no"?><svg version="1.1" width="512" height="512" viewBox="0 0 512 512" id="svg1" xml:space="preserve" xmlns="http://www.w3.org/2000/svg" xmlns:svg="http://www.w3.org/2000/svg"><defs id="defs1" /><path id="bg1" fill="#81563a" d="M 0,0 H 512 V 512 H 0 Z" /><path id="bg2" fill="#61b441" d="M 0,0 V 128 H 64 V 64 H 128 V 128 H 256 V 192 H 320 V 128 H 384 V 64 H 448 V 192 H 512 V 0 Z" /><rect id="rect1" width="64" height="64" x="0" y="0" fill="#86d562" /><rect id="rect2" width="64" height="64" x="64" y="0" fill="#52a535" /><rect id="rect3" width="64" height="64" x="128" y="0" fill="#6cc349" /><rect id="rect4" width="64" height="64" x="192" y="0" fill="#86d562" /><rect id="rect5" width="64" height="64" x="256" y="0" fill="#6cc349" /><rect id="rect6" width="64" height="64" x="320" y="0" fill="#52a535" /><rect id="rect7" width="64" height="64" x="384" y="0" fill="#6cc349" /><rect id="rect8" width="64" height="64" x="448" y="0" fill="#52a535" /><rect id="rect9" width="64" height="64" x="0" y="64" fill="#52a535" /><rect id="rect10" width="64" height="64" x="64" y="64" fill="#66412c" /><rect id="rect11" width="64" height="64" x="128" y="64" fill="#52a535" /><rect id="rect12" width="64" height="64" x="192" y="64" fill="#3c8527" /><rect id="rect13" width="64" height="64" x="256" y="64" fill="#52a535" /><rect id="rect14" width="64" height="64" x="320" y="64" fill="#6cc349" /><rect id="rect15" width="64" height="64" x="384" y="64" fill="#66412c" /><rect id="rect16" width="64" height="64" x="448" y="64" fill="#6cc349" /><rect id="rect17" width="64" height="64" x="0" y="128" fill="#66412c" /><rect id="rect18" width="64" height="64" x="64" y="128" fill="#998f8b" /><rect id="rect19" width="64" height="64" x="128" y="128" fill="#66412c" /><rect id="rect20" width="64" height="64" x="192" y="128" fill="#66412c" /><rect id="rect21" width="64" height="64" x="256" y="128" fill="#6cc349" /><rect id="rect22" width="64" height="64" x="320" y="128" fill="#66412c" /><rect id="rect23" width="64" height="64" x="384" y="128" fill="#805539" /><rect id="rect24" width="64" height="64" x="448" y="128" fill="#52a535" /><rect id="rect25" width="64" height="64" x="0" y="192" fill="#976746" /><rect id="rect26" width="64" height="64" x="64" y="192" fill="#805539" /><rect id="rect27" width="64" height="64" x="128" y="192" fill="#976746" /><rect id="rect28" width="64" height="64" x="192" y="192" fill="#ad7a54" /><rect id="rect29" width="64" height="64" x="256" y="192" fill="#66412c" /><rect id="rect30" width="64" height="64" x="320" y="192" fill="#805539" /><rect id="rect31" width="64" height="64" x="384" y="192" fill="#976746" /><rect id="rect32" width="64" height="64" x="448" y="192" fill="#66412c" /><rect id="rect33" width="64" height="64" x="0" y="256" fill="#805539" /><rect id="rect34" width="64" height="64" x="64" y="256" fill="#66412c" /><rect id="rect35" width="64" height="64" x="128" y="256" fill="#66412c" /><rect id="rect36" width="64" height="64" x="192" y="256" fill="#976746" /><rect id="rect37" width="64" height="64" x="256" y="256" fill="#805539" /><rect id="rect38" width="64" height="64" x="320" y="256" fill="#ad7a54" /><rect id="rect39" width="64" height="64" x="384" y="256" fill="#66412c" /><rect id="rect40" width="64" height="64" x="448" y="256" fill="#66412c" /><rect id="rect41" width="64" height="64" x="0" y="320" fill="#ad7a54" /><rect id="rect42" width="64" height="64" x="64" y="320" fill="#805539" /><rect id="rect43" width="64" height="64" x="128" y="320" fill="#66412c" /><rect id="rect44" width="64" height="64" x="192" y="320" fill="#66412c" /><rect id="rect45" width="64" height="64" x="256" y="320" fill="#998f8b" /><rect id="rect46" width="64" height="64" x="320" y="320" fill="#805539" /><rect id="rect47" width="64" height="64" x="384" y="320" fill="#976746" /><rect id="rect48" width="64" height="64" x="448" y="320" fill="#805539" /><rect id="rect49" width="64" height="64" x="0" y="384" fill="#805539" /><rect id="rect50" width="64" height="64" x="64" y="384" fill="#976746" /><rect id="rect51" width="64" height="64" x="128" y="384" fill="#66412c" /><rect id="rect52" width="64" height="64" x="192" y="384" fill="#ad7a54" /><rect id="rect53" width="64" height="64" x="256" y="384" fill="#976746" /><rect id="rect54" width="64" height="64" x="320" y="384" fill="#ad7a54" /><rect id="rect55" width="64" height="64" x="384" y="384" fill="#805539" /><rect id="rect56" width="64" height="64" x="448" y="384" fill="#976746" /><rect id="rect57" width="64" height="64" x="0" y="448" fill="#66412c" /><rect id="rect58" width="64" height="64" x="64" y="448" fill="#805539" /><rect id="rect59" width="64" height="64" x="128" y="448" fill="#998f8b" /><rect id="rect60" width="64" height="64" x="192" y="448" fill="#805539" /><rect id="rect61" width="64" height="64" x="256" y="448" fill="#805539" /><rect id="rect62" width="64" height="64" x="320" y="448" fill="#976746" /><rect id="rect63" width="64" height="64" x="384" y="448" fill="#66412c" /><rect id="rect64" width="64" height="64" x="448" y="448" fill="#ad7a54" /><rect id="rect65" width="64" height="4.4" x="384" y="64" fill="#503120" /><rect id="rect66" width="64" height="4.4" x="320" y="128" fill="#503120" /><rect id="rect67" width="64" height="4.4" x="128" y="128" fill="#503120" /><rect id="rect68" width="64" height="4.4" x="192" y="128" fill="#503120" /><rect id="rect69" width="64" height="4.4" x="64" y="64" fill="#503120" /><rect id="rect70" width="64" height="4.4" x="0" y="128" fill="#503120" /><rect id="rect71" width="64" height="4.4" x="64" y="192" fill="#65402a" /><rect id="rect72" width="64" height="4.4" x="256" y="192" fill="#503120" /><rect id="rect73" width="64" height="4.4" x="448" y="192" fill="#503120" /><rect id="rect74" width="64" height="4.4" x="384" y="256" fill="#503120" /><rect id="rect75" width="64" height="4.4" x="192" y="320" fill="#503120" /><rect id="rect76" width="64" height="4.4" x="128" y="256" fill="#503120" /><rect id="rect77" width="64" height="4.4" x="0" y="256" fill="#65402a" /><rect id="rect78" width="64" height="4.4" x="256" y="384" fill="#764d34" /><rect id="rect79" width="64" height="4.4" x="0" y="448" fill="#503120" /><rect id="rect80" width="64" height="4.4" x="320" y="448" fill="#764d34" /><rect id="rect81" width="64" height="4.4" x="320" y="320" fill="#65402a" /><rect id="rect82" width="64" height="4.4" x="384" y="384" fill="#65402a" /></svg> 